<?xml version="1.0" encoding="UTF-8"?>
<svg width="441px" height="68px" viewBox="0 0 441 68" version="1.1" xmlns="http://www.w3.org/2000/svg" xmlns:xlink="http://www.w3.org/1999/xlink">    
    <title>hor_ondark_RGB</title>    
    <defs>
        <path d="M0.139473072,10.7221447 C0.139473072,16.6146382 4.9742561,21.3912145 10.9380907,21.3912145 C16.9019252,21.3912145 21.7367083,16.6146382 21.7367083,10.7221447 C21.7367083,4.82981912 16.9019252,0.0534108527 10.9380907,0.0534108527 C4.9742561,0.0534108527 0.139473072,4.82981912 0.139473072,10.7221447 Z" id="path-1"></path>
        <path d="M0.436278574,0.452312661 C0.184546687,0.685607235 0.0418419217,1.01127907 0.0418419217,1.35206718 L0.0418419217,14.0640181 C8.32365091,15.9595995 14.4960147,23.294186 14.4960147,32.0528941 C14.4960147,40.811938 8.32365091,48.1463566 0.0418419217,50.041938 L0.0418419217,63.005155 C0.0418419217,63.6868992 0.601435103,64.2398191 1.29182681,64.2398191 C1.63710771,64.2398191 1.96708059,64.0987339 2.20350446,63.8499871 L29.3145184,35.3309432 C30.9992511,33.5588114 30.9992511,30.7987468 29.3145184,29.026615 L2.20350446,0.507403101 C1.95721542,0.248578811 1.62503138,0.117739018 1.29165672,0.117739018 C0.984986052,0.117906977 0.677464936,0.228591731 0.436278574,0.452312661 Z" id="path-3"></path>
        <path d="M28.3769872,0.507067183 L1.26580318,29.0262791 C-0.418929485,30.7984109 -0.418929485,33.5584755 1.26580318,35.3306072 L28.3769872,63.8496512 C28.6134111,64.0983979 28.9432139,64.2394832 29.2884948,64.2394832 C29.9790566,64.2394832 30.5384797,63.6865633 30.5384797,63.0048191 L30.5384797,50.0416021 C22.2568408,48.1460207 16.0843069,40.8116021 16.0843069,32.0525581 C16.0843069,23.2938501 22.2568408,15.9592636 30.5384797,14.0636822 L30.5384797,1.35189922 C30.5384797,1.01094315 30.3957749,0.685271318 30.1442131,0.451808786 C29.9028566,0.228255814 29.5955056,0.117571059 29.2886649,0.117403101 C28.9554603,0.117403101 28.6229361,0.248242894 28.3769872,0.507067183 Z" id="path-5"></path>
        <path d="M97.0448535,0.0124289406 L97.0448535,18.1205556 C94.7617474,15.5402067 91.869382,14.2497804 88.3665668,14.2497804 C83.9991887,14.2497804 80.5574355,15.8897287 78.0421577,19.170969 C75.5258594,22.4512016 74.2670298,26.8581008 74.2670298,32.3909948 C74.2670298,38.2522481 75.5478009,42.8291214 78.1079822,46.1207752 C80.6681635,49.412093 84.0660337,51.057584 88.2998919,51.057584 C92.0680461,51.057584 95.1495506,49.5813953 97.5440651,46.6286822 L98.0092588,50.4010336 L106.688396,50.4010336 L106.688396,0.0124289406 L97.0448535,0.0124289406 Z M85.6396982,40.7240956 C84.4650628,38.9522997 83.8770647,36.4048708 83.8770647,33.0802972 C83.8770647,25.6664341 86.1935083,21.9592506 90.8274161,21.9592506 C93.7755707,21.9592506 95.8482766,23.1954264 97.0448535,25.6664341 L97.0448535,39.6738501 C95.8263351,42.1456977 93.7313475,43.3815375 90.7607412,43.3815375 C88.521518,43.3815375 86.8148439,42.4952196 85.6396982,40.7240956 Z M119.281964,16.3060982 C116.721613,17.8257881 114.742796,19.9906072 113.345854,22.8015633 C111.949592,25.6116796 111.251547,28.799031 111.251547,32.3639535 L111.251547,33.2823514 C111.251547,38.5972351 112.908045,42.8507881 116.222401,46.044186 C119.536757,49.2369121 123.831508,50.8336951 129.107332,50.8336951 C132.10073,50.8336951 134.826918,50.2708656 137.287768,49.144031 C139.748447,48.0175323 141.699369,46.4484625 143.140194,44.4363178 L138.41835,39.2200258 C136.334588,41.8670543 133.441372,43.1900646 129.739383,43.1900646 C127.345379,43.1900646 125.367242,42.4900129 123.804123,41.0900775 C122.241004,39.6901421 121.304664,37.8315116 120.994421,35.5131783 L143.905255,35.5131783 L143.905255,31.6424031 C143.905255,26.0220026 142.492324,21.6801034 139.665103,18.618553 C136.839413,15.5566667 132.964953,14.0257235 128.044275,14.0257235 C124.762405,14.0257235 121.842145,14.7857364 119.281964,16.3060982 Z M123.371587,23.6055814 C124.557618,22.3366537 126.104068,21.7026098 128.010767,21.7026098 C130.050476,21.7026098 131.62414,22.2768605 132.731931,23.424354 C133.840742,24.5725194 134.417174,26.1963437 134.461227,28.2961628 L134.461227,29.050801 L121.093753,29.050801 C121.426107,26.6887984 122.185725,24.8735013 123.371587,23.6055814 Z M44.2124537,16.5135271 C41.6296505,18.0224677 39.6515141,20.1545349 38.2765138,22.9100646 C36.9023638,25.6664341 36.2157141,28.8044057 36.2157141,32.3256589 L36.2157141,32.7524419 C36.2157141,38.394509 37.7613138,42.8559948 40.8540442,46.1370672 C43.9460941,49.4172997 48.0867435,51.057584 53.2737811,51.057584 C58.4609888,51.057584 62.5955149,49.412093 65.6768493,46.1207752 C68.7581836,42.8291214 70.2986807,38.4603488 70.2986807,33.0144574 L70.2326862,30.5867829 C69.8775401,25.557093 68.1649128,21.5768088 65.0948043,18.6460982 C62.0248659,15.7153876 58.0626401,14.2497804 53.2071062,14.2497804 C49.7934177,14.2497804 46.795427,15.0042506 44.2124537,16.5135271 Z M47.753709,40.7405556 C46.4681755,38.9573385 45.8257489,36.3823643 45.8257489,33.0144574 C45.8257489,29.2310207 46.4681755,26.4365245 47.753709,24.6333204 C49.0389024,22.8282687 50.857155,21.9264987 53.2071062,21.9264987 C55.5789988,21.9264987 57.4190229,22.8338114 58.7271782,24.6489406 C60.0355037,26.4642377 60.6886459,29.0230879 60.6886459,32.3256589 C60.6886459,36.1966021 60.0355037,39.0127649 58.7271782,40.7728036 C57.4190229,42.5333463 55.6009403,43.4137855 53.2737811,43.4137855 C50.8797768,43.4137855 49.0389024,42.5227649 47.753709,40.7405556 Z M4.59274622,19.1378811 C1.64408136,22.396615 0.169578845,26.7593411 0.169578845,32.227739 L0.169578845,32.8503618 C0.169578845,38.53677 1.65530725,42.9930491 4.6259136,46.2186951 C7.59669004,49.4443411 11.6531453,51.057584 16.7961298,51.057584 C19.54511,51.057584 22.0552852,50.505 24.3278458,49.4010078 C26.6002363,48.2960078 28.3904243,46.7433979 29.6977292,44.7423385 C31.0058845,42.741447 31.6705928,40.5378295 31.6933847,38.1323256 L22.6820635,38.1323256 C22.63716,39.7284367 22.0612383,41.0086176 20.9527675,41.9705168 C19.8441267,42.932416 18.4033018,43.4137855 16.6299527,43.4137855 C14.3240546,43.4137855 12.6061546,42.615646 11.4755723,41.019031 C10.3449899,39.422416 9.77961372,36.7985659 9.77961372,33.146137 L9.77961372,32.1618992 C9.77961372,28.5529716 10.3511131,25.9449096 11.492241,24.3375452 C12.6342193,22.7303488 14.3240546,21.9264987 16.5632778,21.9264987 C18.3811902,21.9264987 19.8441267,22.5005814 20.9527675,23.6487468 C22.0612383,24.7965762 22.63716,26.2898966 22.6820635,28.1270284 L31.6933847,28.1270284 C31.6486513,23.9273902 30.2690585,20.5656977 27.5534157,18.0390956 C24.837773,15.5133333 21.2298427,14.2497804 16.7294549,14.2497804 C11.5863003,14.2497804 7.54056064,15.8793152 4.59274622,19.1378811 Z" id="path-7"></path>
        <path d="M38.7447691,0.0769250646 L38.7447691,8.80405685 L33.4908865,8.80405685 L33.4908865,15.7582171 L38.7447691,15.7582171 L38.7447691,34.8838372 C38.8772685,41.5979845 42.3132387,44.9544703 49.0528497,44.9544703 C51.0478249,44.9544703 52.9870108,44.6707881 54.8717683,44.1019121 L54.8717683,36.9176486 C54.0515986,37.070491 53.1089647,37.147584 52.0453975,37.147584 C50.6044026,37.147584 49.6294518,36.863062 49.1195246,36.2940181 C48.6089171,35.7259819 48.3539535,34.7859173 48.3539535,33.4736563 L48.3539535,15.7582171 L54.5060767,15.7582171 L54.5060767,8.80405685 L48.3539535,8.80405685 L48.3539535,0.0769250646 L38.7447691,0.0769250646 Z M185.793441,13.560478 C184.064145,9.95155039 180.883308,8.1473385 176.250081,8.1473385 C171.904814,8.1473385 168.457448,9.68953488 165.908663,12.7730879 L165.608966,8.80405685 L156.597474,8.80405685 L156.597474,44.2987597 L166.207849,44.2987597 L166.207849,19.2025452 C167.427048,16.9718863 169.399912,15.8563049 172.12627,15.8563049 C174.099814,15.8563049 175.495905,16.3160078 176.316075,17.2345736 C177.136415,18.1529716 177.54718,19.6404134 177.54718,21.6958915 L177.54718,44.2987597 L187.156705,44.2987597 L187.123537,19.9242636 C188.232348,17.212739 190.226813,15.8563049 193.108803,15.8563049 C195.12623,15.8563049 196.533888,16.3213824 197.331606,17.2508656 C198.129664,18.1800129 198.528693,19.6508269 198.528693,21.6633075 L198.528693,44.2987597 L208.172065,44.2987597 L208.172065,21.6302196 C208.172065,17.1250646 207.219056,13.751447 205.312357,11.5100388 C203.406338,9.26795866 200.501556,8.1473385 196.599882,8.1473385 C191.922772,8.1473385 188.320114,9.95155039 185.793441,13.560478 Z M127.972157,9.640323 C125.621866,10.6351421 123.804123,12.0078682 122.51842,13.7573256 C121.232546,15.5067829 120.589779,17.4095866 120.589779,19.4652326 L130.199644,19.4652326 C130.199644,18.130801 130.659565,17.0817313 131.579917,16.3160078 C132.499589,15.5501163 133.769134,15.1678424 135.387532,15.1678424 C137.226706,15.1678424 138.573811,15.6594574 139.427318,16.643863 C140.280826,17.6282687 140.707069,18.9405297 140.707069,20.580646 L140.707069,22.6144574 L136.285262,22.6144574 C130.942593,22.636292 126.858073,23.6536176 124.031362,25.6649225 C121.205162,27.6772351 119.791551,30.5646124 119.791551,34.3262145 C119.791551,37.3877649 120.950028,39.9247804 123.266812,41.937093 C125.583255,43.9492377 128.504026,44.9544703 132.028442,44.9544703 C135.752713,44.9544703 138.779279,43.675969 141.106438,41.1174548 C141.305953,42.3853747 141.627931,43.4460336 142.070843,44.2987597 L151.78021,44.2987597 L151.78021,43.741137 C150.849313,42.0133463 150.372893,39.4652455 150.350611,36.0973385 L150.350611,20.7118217 C150.350611,16.7315375 149.048069,13.6421059 146.443664,11.444199 C143.83892,9.24645995 140.319606,8.1473385 135.885893,8.1473385 C132.95934,8.1473385 130.321938,8.64533592 127.972157,9.640323 Z M130.665688,36.5568734 C129.823407,35.7911499 129.401416,34.8178295 129.401416,33.637416 L129.434923,33.0797933 C129.745336,29.7987209 132.305347,28.1587726 137.115978,28.1587726 L140.707069,28.1587726 L140.707069,34.2603747 C140.130637,35.3106202 139.244133,36.1467183 138.047045,36.7701809 C136.850468,37.3929716 135.542143,37.7052067 134.1236,37.7052067 C132.660493,37.7052067 131.507969,37.3227649 130.665688,36.5568734 Z M91.1444622,10.4268734 C88.5842809,11.9474031 86.6054642,14.1120543 85.2093727,16.9231783 C83.8122608,19.7332946 83.114215,22.920646 83.114215,26.4854005 L83.114215,27.4039664 C83.114215,32.7188501 84.7713933,36.9724031 88.0859198,40.165801 C91.3994258,43.3585271 95.6946862,44.9544703 100.97085,44.9544703 C103.963228,44.9544703 106.690437,44.3923127 109.150946,43.265646 C111.611625,42.1389793 113.562718,40.5700775 115.003713,38.5579328 L110.281869,33.3416408 C108.197937,35.9879974 105.304891,37.3116796 101.602731,37.3116796 C99.2087272,37.3116796 97.2299105,36.6114599 95.6667916,35.2116925 C94.1041829,33.8117571 93.167332,31.9531266 92.8567493,29.6347933 L115.768433,29.6347933 L115.768433,25.7640181 C115.768433,20.1436176 114.354823,15.8017183 111.528282,12.740168 C108.702591,9.67828165 104.828301,8.1473385 99.906773,8.1473385 C96.6259241,8.1473385 93.7053239,8.90735142 91.1444622,10.4268734 Z M95.2351054,17.7263566 C96.4211368,16.4582687 97.9674169,15.8242248 99.8732654,15.8242248 C101.912974,15.8242248 103.486809,16.3984755 104.595109,17.545969 C105.70409,18.6941344 106.280522,20.3179587 106.324575,22.4177778 L106.324575,23.1722481 L92.9571019,23.1722481 C93.289456,20.8104134 94.049074,18.9951163 95.2351054,17.7263566 Z M70.0017052,13.0351034 L69.7353456,8.80405685 L60.6573495,8.80405685 L60.6573495,44.2987597 L70.2672143,44.2987597 L70.2672143,21.0725969 C71.3979667,18.6447545 73.7812553,17.4314212 77.4172503,17.4314212 C78.4143127,17.4314212 79.5671767,17.5189276 80.8749919,17.6942765 L81.0080015,8.57412145 C80.0767637,8.28976744 79.0798714,8.1473385 78.0154537,8.1473385 C74.6015951,8.1473385 71.9305157,9.7772093 70.0017052,13.0351034 Z M5.10947695,11.3131912 C2.4605091,13.4235917 1.13568501,16.0539922 1.13568501,19.2025452 C1.13568501,24.6051034 5.41461682,28.1915245 13.9712898,29.9633204 C16.542697,30.4881912 18.4106157,31.0841085 19.5750457,31.7510724 C20.737945,32.4178682 21.3199899,33.3312274 21.3199899,34.4901421 C21.3199899,35.6055556 20.8488431,36.5074935 19.9073998,37.196292 C18.9649361,37.8857623 17.5739473,38.2300775 15.7340934,38.2300775 C13.7610597,38.2300775 12.1865448,37.7816279 11.0119093,36.8848966 C9.83744401,35.9879974 9.20522278,34.6982429 9.11660635,33.0137855 L0.00578302983,33.0137855 C0.00578302983,35.1571059 0.670491282,37.1527907 2.00075823,39.0010078 C3.33102518,40.8493928 5.16475591,42.3039147 7.50399148,43.3637339 C9.84254669,44.4245607 12.5188989,44.9544703 15.5340686,44.9544703 C19.9905734,44.9544703 23.625888,43.9544444 26.4408628,41.953553 C29.2561778,39.9524935 30.6636652,37.3331783 30.6636652,34.096447 C30.6636652,29.5697933 28.1262759,26.3874806 23.049456,24.5505168 C21.4086064,23.9598062 19.3913495,23.4290568 16.9971751,22.9589406 C14.603341,22.4889922 12.9021096,21.9312016 11.893141,21.2857364 C10.8845126,20.6404393 10.3807086,19.7932558 10.3807086,18.7436822 C10.3807086,17.6282687 10.8239609,16.7097028 11.7102952,15.9881525 C12.5971399,15.2657623 13.8498462,14.9049871 15.4675637,14.9049871 C17.3524913,14.9049871 18.7380372,15.348062 19.6243716,16.233708 C20.5112162,17.1198579 20.9542983,18.240478 20.9542983,19.5964083 L30.5643332,19.5964083 C30.5643332,16.2066667 29.1952859,13.4513049 26.4578718,11.3294832 C23.7202875,9.20816537 20.067964,8.1473385 15.5010713,8.1473385 C11.2221395,8.1473385 7.7582747,9.20295866 5.10947695,11.3131912 Z" id="path-9"></path>
    </defs>
    <g id="Page-1" stroke="none" stroke-width="1" fill="none" fill-rule="evenodd">
        <g id="hor_ondark_RGB">
            <g id="Page-1" transform="translate(1.000000, 2.000000)">
                <g id="Group-3" transform="translate(23.812476, 22.002584)">
                    <mask id="mask-2" fill="white">
                        <use xlink:href="#path-1"></use>
                    </mask>
                    <g id="Clip-2"></g>
                    <polygon id="Fill-1" fill="#FFFFFF" mask="url(#mask-2)" points="-0.710972491 22.2310078 22.5869837 22.2310078 22.5869837 -0.786550388 -0.710972491 -0.786550388"></polygon>
                </g>
                <g id="Group-6" transform="translate(38.950407, 0.671835)">
                    <mask id="mask-4" fill="white">
                        <use xlink:href="#path-3"></use>
                    </mask>
                    <g id="Clip-5"></g>
                    <polygon id="Fill-4" fill="#009AEF" mask="url(#mask-4)" points="-0.808603642 65.0796124 31.4287261 65.0796124 31.4287261 -0.721886305 -0.808603642 -0.721886305"></polygon>
                </g>
                <g id="Group-9" transform="translate(0.000000, 0.671835)">
                    <mask id="mask-6" fill="white">
                        <use xlink:href="#path-5"></use>
                    </mask>
                    <g id="Clip-8"></g>
                    <polygon id="Fill-7" fill="#009AEF" mask="url(#mask-6)" points="-0.848234405 65.0792765 31.3890953 65.0792765 31.3890953 -0.722222222 -0.848234405 -0.722222222"></polygon>
                </g>
                <g id="Group-12" transform="translate(83.513754, 0.000000)">
                    <mask id="mask-8" fill="white">
                        <use xlink:href="#path-7"></use>
                    </mask>
                    <g id="Clip-11"></g>
                    <polygon id="Fill-10" fill="#FFFFFF" mask="url(#mask-8)" points="-0.680866718 51.8973773 144.75553 51.8973773 144.75553 -0.827364341 -0.680866718 -0.827364341"></polygon>
                </g>
                <g id="Group-15" transform="translate(230.810926, 5.878553)">
                    <mask id="mask-10" fill="white">
                        <use xlink:href="#path-9"></use>
                    </mask>
                    <g id="Clip-14"></g>
                    <polygon id="Fill-13" fill="#009AEF" mask="url(#mask-10)" points="-0.844662534 45.7942636 209.022511 45.7942636 209.022511 -0.762700258 -0.844662534 -0.762700258"></polygon>
                </g>
            </g>
        </g>
    </g>
</svg>