<?xml version="1.0" encoding="UTF-8"?>
<svg width="228px" height="212px" viewBox="0 0 228 212" version="1.1" xmlns="http://www.w3.org/2000/svg" xmlns:xlink="http://www.w3.org/1999/xlink">    
    <title>vert_ondark_RGB@1x</title>    
    <defs>
        <path d="M3.43457238,0.000423036854 C2.59465193,0.000423036854 1.75260994,0.306701719 1.09174807,0.925181599 C0.402457459,1.57052432 0.0114563536,2.47095826 0.0114563536,3.41390741 L0.0114563536,38.5659433 C22.6933392,43.8077929 39.598674,64.0896603 39.598674,88.3104239 C39.598674,112.530764 22.6933392,132.812632 0.0114563536,138.054481 L0.0114563536,173.901567 C0.0114563536,175.786619 1.54448619,177.31484 3.43520884,177.31484 C4.38057017,177.31484 5.28434917,176.925011 5.93142099,176.237576 L80.1836552,97.3735654 C84.7975956,92.4735295 84.7975956,84.8419447 80.1836552,79.9419088 L5.93142099,1.0778979 C5.25782983,0.362119547 4.34768619,0.000423036854 3.43542099,0.000423036854 C3.43520884,0.000423036854 3.43478453,0.000423036854 3.43457238,0.000423036854 Z" id="path-1"></path>
        <path d="M77.8442254,1.0778979 L3.59199116,79.9419088 C-1.02152486,84.8419447 -1.02152486,92.4735295 3.59199116,97.3735654 L77.8442254,176.237576 C78.4915094,176.925011 79.3950762,177.31484 80.3406497,177.31484 C82.2315845,177.31484 83.7644022,175.786619 83.7644022,173.901567 L83.7644022,138.054481 C61.0827315,132.812632 44.1771845,112.530764 44.1771845,88.3104239 C44.1771845,64.0896603 61.0827315,43.8077929 83.7644022,38.5659433 L83.7644022,3.41390741 C83.7644022,2.47095826 83.373189,1.57052432 82.6838983,0.925181599 C82.0232486,0.306701719 81.1812066,0.000423036854 80.3412862,0.000423036854 C79.4288088,0.000211518427 78.5182409,0.361908028 77.8442254,1.0778979 Z" id="path-3"></path>
        <path d="M0.00848618785,28.8375762 C0.00848618785,44.6530205 12.8654851,57.47421 28.7253215,57.47421 C44.5853702,57.47421 57.4425812,44.6530205 57.4425812,28.8375762 C57.4425812,13.0217089 44.5853702,0.200730987 28.7253215,0.200730987 C12.8654851,0.200730987 0.00848618785,13.0217089 0.00848618785,28.8375762 Z" id="path-5"></path>
    </defs>
    <g id="vert_ondark_RGB" stroke="none" stroke-width="1" fill="none" fill-rule="evenodd">
        <g id="Page-1" transform="translate(18.000000, 17.000000)">
            <g id="Group-3" transform="translate(107.986740, 0.000000)">
                <mask id="mask-2" fill="white">
                    <use xlink:href="#path-1"></use>
                </mask>
                <use id="Clip-2" fill="#009AEF" xlink:href="#path-1"></use>
            </g>
            <g id="Group-6" transform="translate(0.636464, 0.000000)">
                <mask id="mask-4" fill="white">
                    <use xlink:href="#path-3"></use>
                </mask>
                <use id="Clip-5" fill="#009AEF" xlink:href="#path-3"></use>
            </g>
            <g id="Group-9" transform="translate(67.677348, 60.071233)">
                <mask id="mask-6" fill="white">
                    <use xlink:href="#path-5"></use>
                </mask>
                <use id="Clip-8" fill="#282C34" xlink:href="#path-5"></use>
            </g>
        </g>
    </g>
</svg>