<svg id="Layer_1" data-name="Layer 1" xmlns="http://www.w3.org/2000/svg" xmlns:xlink="http://www.w3.org/1999/xlink" viewBox="0 0 440.68 66.58"><defs><style>.cls-1{fill:#fff;}.cls-1,.cls-3,.cls-5{fill-rule:evenodd;}.cls-2{mask:url(#mask);}.cls-3{fill:#272c34;}.cls-4{mask:url(#mask-2-2);}.cls-5{fill:#009aef;}.cls-6{mask:url(#mask-3);}.cls-7{mask:url(#mask-4-2);}.cls-8{mask:url(#mask-5);}</style><mask id="mask" x="23.95" y="22.04" width="23.3" height="23.02" maskUnits="userSpaceOnUse"><g transform="translate(-0.15 -1.17)"><g id="mask-2"><path id="path-1" class="cls-1" d="M25,34.72a10.8,10.8,0,1,0,10.8-10.66A10.73,10.73,0,0,0,25,34.72Z"/></g></g></mask><mask id="mask-2-2" x="38.99" y="0.78" width="32.24" height="65.8" maskUnits="userSpaceOnUse"><g transform="translate(-0.15 -1.17)"><g id="mask-4"><path id="path-3" class="cls-1" d="M40.39,3.12A1.21,1.21,0,0,0,40,4V16.74a18.41,18.41,0,0,1,0,36v13a1.25,1.25,0,0,0,2.16.84L69.26,38a4.55,4.55,0,0,0,0-6.3L42.15,3.18a1.23,1.23,0,0,0-.91-.39A1.26,1.26,0,0,0,40.39,3.12Z"/></g></g></mask><mask id="mask-3" x="0" y="0.78" width="32.24" height="65.8" maskUnits="userSpaceOnUse"><g transform="translate(-0.15 -1.17)"><g id="mask-6"><path id="path-5" class="cls-1" d="M29.38,3.18,2.27,31.7a4.55,4.55,0,0,0,0,6.3L29.38,66.52a1.25,1.25,0,0,0,2.16-.84v-13a18.41,18.41,0,0,1,0-36V4a1.21,1.21,0,0,0-.4-.9,1.26,1.26,0,0,0-1.76.06Z"/></g></g></mask><mask id="mask-4-2" x="83.68" y="0" width="145.44" height="52.72" maskUnits="userSpaceOnUse"><g transform="translate(-0.15 -1.17)"><g id="mask-8"><path id="path-7" class="cls-1" d="M181.56,2V20.12a11.09,11.09,0,0,0-8.68-3.87,12.29,12.29,0,0,0-10.32,4.92q-3.78,4.92-3.78,13.22,0,8.79,3.84,13.73a12.28,12.28,0,0,0,10.19,4.94,11.39,11.39,0,0,0,9.25-4.43l.46,3.77h8.68V2ZM170.15,42.72q-1.76-2.65-1.76-7.64,0-11.11,7-11.12a6.36,6.36,0,0,1,6.22,3.71v14a6.43,6.43,0,0,1-6.29,3.71A5.76,5.76,0,0,1,170.15,42.72ZM203.8,18.31a15.26,15.26,0,0,0-5.94,6.49,21.16,21.16,0,0,0-2.09,9.56v.92q0,8,5,12.76t12.88,4.79a19.37,19.37,0,0,0,8.18-1.69,14.33,14.33,0,0,0,5.85-4.7l-4.72-5.22a10.41,10.41,0,0,1-8.68,4,8.55,8.55,0,0,1-5.93-2.1,8.73,8.73,0,0,1-2.81-5.58h22.91V33.64q0-8.43-4.24-13T212.56,16A16.83,16.83,0,0,0,203.8,18.31Zm4.09,7.3a6,6,0,0,1,4.63-1.91,6.31,6.31,0,0,1,4.73,1.72A7,7,0,0,1,219,30.3v.75H205.61A9.68,9.68,0,0,1,207.89,25.61Zm-79.16-7.1a15,15,0,0,0-5.94,6.4,20.88,20.88,0,0,0-2.06,9.42v.42q0,8.46,4.64,13.39t12.42,4.92q7.77,0,12.4-4.94T154.81,35l-.06-2.42q-.54-7.55-5.14-11.94a16.51,16.51,0,0,0-11.89-4.4A17.48,17.48,0,0,0,128.73,18.51Zm3.54,24.23q-1.94-2.67-1.93-7.73,0-5.67,1.93-8.38a6.3,6.3,0,0,1,5.45-2.7,6.4,6.4,0,0,1,5.52,2.72q2,2.72,2,7.68,0,5.81-2,8.44a7,7,0,0,1-11,0ZM89.11,21.14Q84.69,26,84.68,34.23v.62q0,8.53,4.46,13.37t12.17,4.84a16.91,16.91,0,0,0,7.53-1.66,13.12,13.12,0,0,0,5.37-4.66,12.08,12.08,0,0,0,2-6.61h-9A5.07,5.07,0,0,1,105.47,44a6.38,6.38,0,0,1-4.33,1.44A5.88,5.88,0,0,1,96,43q-1.69-2.4-1.7-7.87v-1q0-5.41,1.72-7.82a6.5,6.5,0,0,1,9.46-.69,6.48,6.48,0,0,1,1.73,4.48h9A13.38,13.38,0,0,0,112.07,20q-4.08-3.79-10.83-3.79Q93.53,16.25,89.11,21.14Z"/></g></g></mask><mask id="mask-5" x="230.81" y="5.94" width="209.87" height="46.56" maskUnits="userSpaceOnUse"><g transform="translate(-0.15 -1.17)"><g id="mask-10"><path id="path-9" class="cls-1" d="M270.56,8v8.72H265.3v7h5.26V42.76q.19,10.08,10.3,10.07a19.94,19.94,0,0,0,5.82-.85V44.8a15.76,15.76,0,0,1-2.82.23,3.88,3.88,0,0,1-2.93-.86,4.19,4.19,0,0,1-.77-2.82V23.64h6.16v-7h-6.16V8Zm147,13.48c-1.72-3.61-4.91-5.41-9.54-5.41a12.73,12.73,0,0,0-10.34,4.62l-.3-4h-9v35.5H398V27.08a6.25,6.25,0,0,1,5.92-3.35c2,0,3.37.46,4.19,1.38a6.62,6.62,0,0,1,1.23,4.46V52.18H419l0-24.38a6,6,0,0,1,6-4.07c2,0,3.42.47,4.22,1.4a6.68,6.68,0,0,1,1.2,4.41V52.18H440V29.51q0-6.77-2.86-10.12T428.41,16A12.41,12.41,0,0,0,417.6,21.44Zm-57.82-3.92a12.7,12.7,0,0,0-5.45,4.12,9.4,9.4,0,0,0-1.93,5.7H362a3.89,3.89,0,0,1,1.38-3.15,5.81,5.81,0,0,1,3.81-1.14,5.09,5.09,0,0,1,4,1.47,5.84,5.84,0,0,1,1.28,3.94v2H368.1q-8,0-12.26,3.05a10,10,0,0,0-4.24,8.66,9.66,9.66,0,0,0,3.48,7.62,12.86,12.86,0,0,0,8.76,3A11.74,11.74,0,0,0,372.92,49a10.66,10.66,0,0,0,1,3.18h9.71v-.56Q382.2,49,382.16,44V28.59q0-6-3.91-9.27T367.7,16A20,20,0,0,0,359.78,17.52Zm2.7,26.92a3.76,3.76,0,0,1-1.27-2.92l0-.56q.47-4.92,7.68-4.92h3.59v6.1a6.17,6.17,0,0,1-2.66,2.51,8.43,8.43,0,0,1-3.93.93A5,5,0,0,1,362.48,44.44ZM323,18.31A15.26,15.26,0,0,0,317,24.8a21.16,21.16,0,0,0-2.09,9.56v.92q0,8,5,12.76t12.88,4.79A19.37,19.37,0,0,0,341,51.14a14.33,14.33,0,0,0,5.85-4.7l-4.72-5.22a10.41,10.41,0,0,1-8.68,4,8.55,8.55,0,0,1-5.93-2.1,8.78,8.78,0,0,1-2.81-5.58h22.91V33.64q0-8.43-4.24-13T331.72,16A16.83,16.83,0,0,0,323,18.31Zm4.09,7.29a6.07,6.07,0,0,1,4.63-1.9,6.31,6.31,0,0,1,4.73,1.72,7,7,0,0,1,1.73,4.88v.75H324.77A9.74,9.74,0,0,1,327.05,25.6Zm-25.24-4.69-.26-4.23h-9.08v35.5h9.61V29q1.69-3.64,7.15-3.64a27.33,27.33,0,0,1,3.46.26l.13-9.12a10.34,10.34,0,0,0-3-.42Q304.7,16,301.81,20.91Zm-64.89-1.72a9.7,9.7,0,0,0-4,7.89q0,8.1,12.83,10.76a20.23,20.23,0,0,1,5.61,1.79,3.05,3.05,0,0,1,1.74,2.74,3.19,3.19,0,0,1-1.41,2.7,7,7,0,0,1-4.17,1,7.59,7.59,0,0,1-4.73-1.35,4.92,4.92,0,0,1-1.89-3.87h-9.11a10,10,0,0,0,2,6,13.46,13.46,0,0,0,5.5,4.36,19.28,19.28,0,0,0,8,1.59q6.69,0,10.91-3A9.21,9.21,0,0,0,262.47,42q0-6.78-7.61-9.54a42.29,42.29,0,0,0-6.05-1.59,15.56,15.56,0,0,1-5.11-1.68,2.92,2.92,0,0,1-1.51-2.54,3.39,3.39,0,0,1,1.33-2.75,7.1,7.1,0,0,1,7.92.24,4.59,4.59,0,0,1,1.33,3.36h9.61a10,10,0,0,0-4.11-8.26q-4.11-3.18-11-3.18Q240.89,16,236.92,19.19Z"/></g></g></mask></defs><g id="Page-1"><g id="hor_ondark_RGB" data-name="hor ondark RGB"><g id="Page-1-2" data-name="Page-1"><g id="Group-3"><g class="cls-2"><polygon id="Fill-1" class="cls-3" points="23.95 45.06 47.25 45.06 47.25 22.04 23.95 22.04 23.95 45.06"/></g></g><g id="Group-6"><g class="cls-4"><polygon id="Fill-4" class="cls-5" points="38.99 66.58 71.23 66.58 71.23 0.78 38.99 0.78 38.99 66.58"/></g></g><g id="Group-9"><g class="cls-6"><polygon id="Fill-7" class="cls-5" points="0 66.58 32.24 66.58 32.24 0.78 0 0.78 0 66.58"/></g></g><g id="Group-12"><g class="cls-7"><polygon id="Fill-10" class="cls-3" points="83.68 52.73 229.12 52.73 229.12 0 83.68 0 83.68 52.73"/></g></g><g id="Group-15"><g class="cls-8"><polygon id="Fill-13" class="cls-5" points="230.81 52.5 440.68 52.5 440.68 5.94 230.81 5.94 230.81 52.5"/></g></g></g></g></g></svg>